<svg width="129" height="97" xmlns="http://www.w3.org/2000/svg" xmlns:xlink="http://www.w3.org/1999/xlink" xml:space="preserve" overflow="hidden"><defs><clipPath id="clip0"><rect x="442" y="364" width="129" height="97"/></clipPath></defs><g clip-path="url(#clip0)" transform="translate(-442 -364)"><path d="M41.5219 48.375 29.0855 38.6597 29.0855 15.7622 10.7433 1.43109C7.89524-0.853764 3.73419-0.397211 1.44934 2.45084 0.563464 3.55506 0.0554321 4.9145-1.38316e-07 6.32906L0 38.5791 12.4364 48.375 0 58.0702 0 90.3202C0.127741 93.9692 3.18944 96.8238 6.83849 96.696 8.24467 96.6468 9.59847 96.1504 10.703 95.2786L29.0855 80.8467 29.0855 58.0702Z" fill="#003C71" transform="matrix(1 0 0 1.00258 442 364)"/><path d="M29.0855 80.9273 29.0855 90.4209C29.253 94.0795 32.3546 96.9096 36.0134 96.7421 37.4122 96.678 38.7548 96.1727 39.8489 95.2987L58.1709 80.9878 58.1709 58.1306Z" fill="#BB33FF" transform="matrix(1 0 0 1.00258 442 364)"/><path d="M58.1709 38.5992 58.1709 15.7622 39.8288 1.43109C36.9807-0.853764 32.8196-0.397211 30.5349 2.45084 29.6488 3.55506 29.1409 4.9145 29.0855 6.32906L29.0855 15.7622Z" fill="#BB33FF" transform="matrix(1 0 0 1.00258 442 364)"/><path d="M70.6275 48.375 29.0855 15.7622 29.0855 38.6597 41.5219 48.375 29.0855 58.0903 29.0855 80.9273 70.6275 48.375Z" fill="#8800CC" transform="matrix(1 0 0 1.00258 442 364)"/><path d="M69.015 1.41094C66.0976-0.875999 61.8787-0.364877 59.5918 2.55257 58.7381 3.64143 58.2419 4.96749 58.1709 6.34922L58.1709 15.7622 99.8944 48.375 58.1709 80.9878 58.1709 90.4209C58.3507 94.0789 61.4621 96.8986 65.12 96.7188 66.4765 96.652 67.7798 96.1705 68.8538 95.3391L129 48.4758Z" fill="#00EEFF" transform="matrix(1 0 0 1.00258 442 364)"/><path d="M99.8944 48.375 58.1709 15.7622 58.1709 38.5992 70.6275 48.375 58.1709 58.1306 58.1709 80.9677 99.8944 48.375Z" fill="#00BECC" transform="matrix(1 0 0 1.00258 442 364)"/></g></svg>